<svg width="351" height="64" xmlns="http://www.w3.org/2000/svg"><g fill="#000" fill-rule="nonzero"><path d="M277.244 43.598c.918 1.134 3.51 3.942 8.208 3.942 6.318 0 11.61-4.32 11.61-11.826V10.226c0-.54-.432-1.026-1.026-1.026h-6.588c-.594 0-1.026.486-1.026 1.026V35.66c0 2.7-1.674 4.104-3.186 4.104-1.458 0-2.106-.486-2.754-1.134-.432-.432-1.026-.378-1.458 0l-3.672 3.618a1.137 1.137 0 0 0-.108 1.35zm24.894-7.452c0 6.21 5.076 11.394 11.232 11.394s11.232-5.184 11.232-11.394c0-6.102-5.076-11.286-11.232-11.286s-11.232 5.184-11.232 11.286zm6.966 0c0-2.376 1.89-4.32 4.266-4.32 2.376 0 4.266 1.944 4.266 4.32 0 2.43-1.89 4.428-4.266 4.428-2.376 0-4.266-1.998-4.266-4.428zm25.164 8.64l-8.046 16.956c-.378.756.108 1.458.918 1.458h6.048c.432 0 .756-.324.918-.648l16.524-35.748c.378-.702-.108-1.404-.918-1.404h-6.102c-.432 0-.81.27-.918.594l-4.266 10.044h-.108l-4.158-10.044c-.162-.324-.486-.594-.918-.594h-6.156c-.81 0-1.242.702-.918 1.404l8.1 17.982zM246.186 32.382l1.11 6.485-2.38 2.38-5.892-11.606-6.688 6.688c.537.123 1.026.243 1.331.328 1.09.301 2.066.726 2.767 1.075.358.178.64.335.833.446-.31.6-1.105 1.971-2.489 3.354a13.399 13.399 0 0 1-3.023 2.28c-.127-.183-.31-.459-.526-.819a18.26 18.26 0 0 1-1.392-2.87c-.129-.338-.24-.658-.338-.957l-.107.107c-.221 2.064-.857 4.64-2.386 7.399-.602.138-2.746.499-4.997-.591.077-.18.187-.43.329-.736.684-1.489 2.102-4.304 4.055-6.929a36.97 36.97 0 0 1-4.247 2.7 42.332 42.332 0 0 1-3.418 1.685 7.778 7.778 0 0 1-.76-3.49c.007-.513.062-.937.114-1.23.02-.112.04-.206.056-.278 2.991-1.656 5.764-2.264 7.907-2.433-.433-.13-.92-.291-1.457-.495a18.102 18.102 0 0 1-2.87-1.392c-.36-.216-.636-.4-.819-.526a13.404 13.404 0 0 1 2.28-3.024c.93-.93 1.854-1.594 2.543-2.024.335-.209.615-.363.811-.464.11.192.268.475.446.834.35.7.774 1.677 1.074 2.765.124.444.323 1.273.494 2.075l.215-.216 6.762-6.761-11.607-5.893 2.381-2.38 6.43 1.1 2.567-2.565c.78-.78 2.04-.785 2.826.002a2 2 0 0 1 .002 2.826l-.565.565 3.68.63 6.714-6.713c1.052-1.053 2.667-1.047 3.607-.107.94.939.945 2.554-.108 3.606l-6.713 6.714.62 3.626.543-.543c.78-.78 2.04-.784 2.827.002a2 2 0 0 1 .002 2.827l-2.544 2.543zm-31.4 19.258c11.717 11.715 30.711 11.715 42.427 0 11.716-11.716 11.716-30.711 0-42.427-11.716-11.716-30.71-11.716-42.426 0-11.716 11.716-11.716 30.71 0 42.427zM9.504 45.974c0 .54.486 1.026 1.026 1.026h6.48c.54 0 1.026-.486 1.026-1.026V17.138h7.722c.594 0 1.026-.486 1.026-1.026v-5.886c0-.54-.432-1.026-1.026-1.026H1.782c-.594 0-1.026.486-1.026 1.026v5.886c0 .54.432 1.026 1.026 1.026h7.722v28.836zm17.952 0c0 .54.486 1.026 1.026 1.026h5.508c.864 0 1.188-.378 1.188-1.026V34.796c0-1.836 1.242-3.078 2.862-3.078.486 0 1.026.162 1.296.27.594.216.972-.108 1.188-.486l2.646-4.32c.756-1.242-1.35-2.322-4.32-2.322-2.808 0-4.806 1.998-5.886 3.564l-.972-2.376c-.162-.324-.378-.648-.972-.648h-2.538c-.54 0-1.026.432-1.026 1.026v19.548zm17.172-5.562c0 4.266 3.186 7.128 7.452 7.128 3.402 0 5.292-1.566 6.534-2.7l.756 1.458c.27.594.648.702.972.702h2.376c.54 0 1.026-.486 1.026-1.026V34.04c0-6.372-2.43-9.18-9.126-9.18-2.916 0-6.696.648-7.182.81-.486.162-.972.54-.81 1.458l.486 3.402c.108.81.486 1.404 1.296 1.134 1.404-.432 3.942-.81 5.4-.81 2.592 0 2.916 1.08 2.916 3.186 0 0-1.728-.864-4.158-.864-4.914 0-7.938 3.078-7.938 7.236zm7.02-.54c0-1.242 1.026-2.268 2.322-2.268a2.377 2.377 0 0 1 2.376 2.268 2.397 2.397 0 0 1-2.376 2.376c-1.296 0-2.322-1.08-2.322-2.376zM76.704 47c.162.27.594.54.918.54h.27c.324 0 .756-.27.918-.54l10.26-20.142c.378-.702-.108-1.458-.918-1.458h-5.454c-.756 0-1.134-.054-1.458.594l-3.402 7.344h-.162l-3.186-7.344c-.162-.324-.594-.594-.972-.594H67.47c-.81 0-1.296.756-.918 1.458L76.704 47zm13.932-10.8c0 6.21 4.86 11.34 11.286 11.34 3.402 0 6.102-1.188 7.992-3.078.486-.486.378-1.134.054-1.566l-2.7-3.24c-.324-.378-.864-.378-1.35 0-.864.648-2.43 1.296-3.78 1.296-2.808 0-3.996-2.106-4.158-3.564h12.96c.486 0 .972-.378 1.026-.918.054-.378.108-1.08.108-1.458 0-5.94-4.752-10.152-10.26-10.152-6.372 0-11.178 5.238-11.178 11.34zm8.046-3.024c.216-1.404 1.458-2.538 2.916-2.538 1.404 0 2.754 1.134 2.862 2.538h-5.778zm17.28 12.798c0 .54.486 1.026 1.026 1.026h5.94c.54 0 1.026-.486 1.026-1.026V10.226c0-.54-.486-1.026-1.026-1.026h-5.94c-.54 0-1.026.486-1.026 1.026v35.748zm12.204-9.774c0 6.21 4.86 11.34 11.286 11.34 3.402 0 6.102-1.188 7.992-3.078.486-.486.378-1.134.054-1.566l-2.7-3.24c-.324-.378-.864-.378-1.35 0-.864.648-2.43 1.296-3.78 1.296-2.808 0-3.996-2.106-4.158-3.564h12.96c.486 0 .972-.378 1.026-.918.054-.378.108-1.08.108-1.458 0-5.94-4.752-10.152-10.26-10.152-6.372 0-11.178 5.238-11.178 11.34zm8.046-3.024c.216-1.404 1.458-2.538 2.916-2.538 1.404 0 2.754 1.134 2.862 2.538h-5.778zm17.28 12.798c0 .54.486 1.026 1.026 1.026h5.508c.864 0 1.188-.378 1.188-1.026V34.796c0-1.836 1.242-3.078 2.862-3.078.486 0 1.026.162 1.296.27.594.216.972-.108 1.188-.486l2.646-4.32c.756-1.242-1.35-2.322-4.32-2.322-2.808 0-4.806 1.998-5.886 3.564l-.972-2.376c-.162-.324-.378-.648-.972-.648h-2.538c-.54 0-1.026.432-1.026 1.026v19.548zm19.386-21.492c.432.486.81.378 1.188.108 1.242-1.026 5.022-3.996 5.022-9.666 0-4.698-2.862-6.264-4.914-6.264-2.484 0-4.266 1.782-4.266 3.888 0 2.16 1.782 3.834 3.888 3.834 1.242 0 2.16-.378 2.16-.378-.054 3.672-3.24 6.048-3.834 6.48-.324.27-.432.756-.054 1.188l.81.81zm4.288 21.276c1.08.864 3.78 1.782 7.344 1.782 6.102 0 9.126-3.078 9.126-6.858 0-4.32-3.024-6.048-7.398-7.56-1.836-.648-2.43-1.188-2.43-1.728 0-.594.486-.756 1.188-.756 2.106 0 4.59 1.242 4.59 1.242.432.162.972 0 1.134-.324l1.998-3.672c.324-.54-.054-1.026-.54-1.35-1.188-.756-3.78-1.674-7.182-1.674-5.832 0-8.424 2.916-8.424 6.534 0 3.348 1.836 5.778 6.048 7.236 2.754.972 3.078 1.728 3.078 2.268 0 .648-.486.972-1.026.972-2.322 0-4.86-1.404-4.86-1.404-.432-.216-.972.108-1.134.432l-1.89 3.726c-.27.486 0 .81.378 1.134z"/></g></svg>